<svg width="32" height="53" viewBox="0 0 32 53" fill="none" xmlns="http://www.w3.org/2000/svg">
<path d="M30.8991 17.1117C30.0788 17.9484 28.7171 17.9484 27.8804 17.1281L17.889 7.5V51C17.889 52.1648 16.9374 53 15.7562 53C14.5749 53 13.6234 52.1648 13.6234 51V7.5L3.63195 17.1445C2.79523 17.9648 1.44992 17.9484 0.613198 17.1281C-0.207114 16.2914 -0.207113 14.9625 0.629606 14.1258L14.2468 0.607032C14.4437 0.426563 14.6569 0.278906 14.9194 0.164063C15.1819 0.0492188 15.4609 0 15.7398 0C16.2976 0 16.8226 0.213282 17.2327 0.607032L30.8499 14.1258C31.703 14.9297 31.7194 16.275 30.8991 17.1117Z" fill="#8750f7"/>
</svg>
