
<svg width="320" height="129" viewBox="0 0 320 129" fill="none" xmlns="http://www.w3.org/2000/svg">
<mask id="path-1-outside-1_8_2" maskUnits="userSpaceOnUse" x="29" y="0.5" width="257" height="124" fill="black">
<rect fill="white" x="29" y="0.5" width="257" height="124"/>
<path d="M75.425 2.5H107.425C112.652 2.5 116.492 3.7 118.945 6.1C121.398 8.44667 122.625 12.0467 122.625 16.9C122.625 20.1 121.932 22.7133 120.545 24.74C119.158 26.7133 117.452 28.1 115.425 28.9C119.745 30.0733 122.678 32.9533 124.225 37.54C124.758 39.1933 125.025 41.1133 125.025 43.3C125.025 48.5267 123.798 52.3667 121.345 54.82C118.892 57.2733 115.052 58.5 109.825 58.5H75.425V2.5ZM110.625 40.9C110.625 37.7 109.025 36.1 105.825 36.1H89.825V47.3H105.825C109.025 47.3 110.625 45.7 110.625 42.5V40.9ZM108.225 18.5C108.225 15.3 106.625 13.7 103.425 13.7H89.825V24.9H103.425C106.625 24.9 108.225 23.3 108.225 20.1V18.5ZM147.822 25.3C145.689 25.3 144.622 26.3667 144.622 28.5V32.9H158.222V28.5C158.222 26.3667 157.155 25.3 155.022 25.3H147.822ZM170.622 57.7C160.329 58.7667 150.995 59.3 142.622 59.3C138.995 59.3 136.089 58.2067 133.902 56.02C131.715 53.8333 130.622 50.9267 130.622 47.3V28.1C130.622 24.1 131.742 20.98 133.982 18.74C136.275 16.4467 139.422 15.3 143.422 15.3H159.422C163.422 15.3 166.542 16.4467 168.782 18.74C171.075 20.98 172.222 24.1 172.222 28.1V42.9H144.622V46.1C144.622 46.9 144.889 47.5667 145.422 48.1C145.955 48.6333 146.622 48.9 147.422 48.9C152.702 48.9 160.435 48.5 170.622 47.7V57.7ZM207.791 15.3C212.111 15.3 215.444 16.9 217.791 20.1C220.244 18.4467 222.884 17.2467 225.711 16.5C228.591 15.7 231.151 15.3 233.391 15.3H234.191C237.817 15.3 240.724 16.3933 242.911 18.58C245.097 20.7667 246.191 23.6733 246.191 27.3V58.5H232.191V29.7C232.191 28.9 231.924 28.2333 231.391 27.7C230.857 27.1667 230.191 26.9 229.391 26.9H228.991C226.591 26.9 223.524 27.4333 219.791 28.5V58.5H205.791V29.7C205.791 28.9 205.524 28.2333 204.991 27.7C204.457 27.1667 203.791 26.9 202.991 26.9H202.591C200.191 26.9 197.124 27.4333 193.391 28.5V58.5H179.391V16.1H191.791L192.591 20.1C195.097 18.4467 197.657 17.2467 200.271 16.5C202.937 15.7 205.177 15.3 206.991 15.3H207.791ZM60.3922 105.7L73.9922 66.5H89.5922L68.3922 122.5H52.3922L31.1922 66.5H46.7922L60.3922 105.7ZM110.389 81.7V122.5H96.3891V92.5H90.3891V81.7H110.389ZM96.3891 65.7H110.389V76.9H96.3891V65.7ZM142.014 90.9C139.187 90.9 135.987 91.4333 132.414 92.5V122.5H118.414V80.1H130.814L131.614 84.1C134.121 82.4467 136.681 81.2467 139.294 80.5C141.961 79.7 144.201 79.3 146.014 79.3H149.614C153.241 79.3 156.147 80.3933 158.334 82.58C160.521 84.7667 161.614 87.6733 161.614 91.3V122.5H147.614V93.7C147.614 92.9 147.347 92.2333 146.814 91.7C146.281 91.1667 145.614 90.9 144.814 90.9H142.014ZM198.805 122.5L198.005 118.5C195.498 120.153 192.911 121.38 190.245 122.18C187.631 122.927 185.418 123.3 183.605 123.3H180.005C176.378 123.3 173.471 122.207 171.285 120.02C169.098 117.833 168.005 114.927 168.005 111.3V92.9C168.005 88.9 169.125 85.78 171.365 83.54C173.658 81.2467 176.805 80.1 180.805 80.1H197.205V66.5H211.205V122.5H198.805ZM187.605 111.7C190.431 111.7 193.631 111.167 197.205 110.1V90.9H185.205C183.071 90.9 182.005 91.9667 182.005 94.1V108.9C182.005 109.7 182.271 110.367 182.805 110.9C183.338 111.433 184.005 111.7 184.805 111.7H187.605ZM262.395 110.5C262.395 114.5 261.249 117.647 258.955 119.94C256.715 122.18 253.595 123.3 249.595 123.3H231.195C227.195 123.3 224.049 122.18 221.755 119.94C219.515 117.647 218.395 114.5 218.395 110.5V92.1C218.395 88.1 219.515 84.98 221.755 82.74C224.049 80.4467 227.195 79.3 231.195 79.3H249.595C253.595 79.3 256.715 80.4467 258.955 82.74C261.249 84.98 262.395 88.1 262.395 92.1V110.5ZM248.395 93.3C248.395 91.1667 247.329 90.1 245.195 90.1H235.595C233.462 90.1 232.395 91.1667 232.395 93.3V109.3C232.395 111.433 233.462 112.5 235.595 112.5H245.195C247.329 112.5 248.395 111.433 248.395 109.3V93.3ZM269.586 110.5H283.986V122.5H269.586V110.5ZM271.186 105.7L269.586 88.9V66.5H283.986V88.9L282.386 105.7H271.186Z"/>
</mask>
<path d="M75.425 2.5V1.3H74.225V2.5H75.425ZM118.945 6.1L118.106 6.95785L118.116 6.96717L118.945 6.1ZM120.545 24.74L121.527 25.4299L121.531 25.4238L121.535 25.4176L120.545 24.74ZM115.425 28.9L114.984 27.7838L111.623 29.1108L115.11 30.058L115.425 28.9ZM124.225 37.54L125.367 37.1716L125.365 37.1641L125.362 37.1566L124.225 37.54ZM121.345 54.82L120.496 53.9715L121.345 54.82ZM75.425 58.5H74.225V59.7H75.425V58.5ZM89.825 36.1V34.9H88.625V36.1H89.825ZM89.825 47.3H88.625V48.5H89.825V47.3ZM89.825 13.7V12.5H88.625V13.7H89.825ZM89.825 24.9H88.625V26.1H89.825V24.9ZM75.425 3.7H107.425V1.3H75.425V3.7ZM107.425 3.7C112.499 3.7 115.97 4.8684 118.106 6.9578L119.784 5.2422C117.013 2.53159 112.805 1.3 107.425 1.3V3.7ZM118.116 6.96717C120.246 9.00485 121.425 12.2315 121.425 16.9H123.825C123.825 11.8618 122.551 7.88848 119.774 5.23283L118.116 6.96717ZM121.425 16.9C121.425 19.9308 120.769 22.2878 119.555 24.0624L121.535 25.4176C123.095 23.1388 123.825 20.2692 123.825 16.9H121.425ZM119.563 24.0501C118.296 25.8528 116.77 27.079 114.984 27.7838L115.866 30.0162C118.133 29.121 120.02 27.5739 121.527 25.4299L119.563 24.0501ZM115.11 30.058C119.009 31.1168 121.657 33.6795 123.088 37.9234L125.362 37.1566C123.7 32.2272 120.481 29.0299 115.74 27.742L115.11 30.058ZM123.083 37.9084C123.569 39.4165 123.825 41.2076 123.825 43.3H126.225C126.225 41.0191 125.947 38.9701 125.367 37.1716L123.083 37.9084ZM123.825 43.3C123.825 48.3674 122.633 51.835 120.496 53.9715L122.194 55.6685C124.964 52.8983 126.225 48.6859 126.225 43.3H123.825ZM120.496 53.9715C118.36 56.1079 114.892 57.3 109.825 57.3V59.7C115.211 59.7 119.423 58.4387 122.194 55.6685L120.496 53.9715ZM109.825 57.3H75.425V59.7H109.825V57.3ZM76.625 58.5V2.5H74.225V58.5H76.625ZM111.825 40.9C111.825 39.115 111.378 37.5559 110.274 36.4515C109.169 35.3471 107.61 34.9 105.825 34.9V37.3C107.24 37.3 108.081 37.6529 108.576 38.1485C109.072 38.6441 109.425 39.485 109.425 40.9H111.825ZM105.825 34.9H89.825V37.3H105.825V34.9ZM88.625 36.1V47.3H91.025V36.1H88.625ZM89.825 48.5H105.825V46.1H89.825V48.5ZM105.825 48.5C107.61 48.5 109.169 48.0529 110.274 46.9485C111.378 45.8441 111.825 44.285 111.825 42.5H109.425C109.425 43.915 109.072 44.7559 108.576 45.2515C108.081 45.7471 107.24 46.1 105.825 46.1V48.5ZM111.825 42.5V40.9H109.425V42.5H111.825ZM109.425 18.5C109.425 16.715 108.978 15.1559 107.874 14.0515C106.769 12.9471 105.21 12.5 103.425 12.5V14.9C104.84 14.9 105.681 15.2529 106.176 15.7485C106.672 16.2441 107.025 17.085 107.025 18.5H109.425ZM103.425 12.5H89.825V14.9H103.425V12.5ZM88.625 13.7V24.9H91.025V13.7H88.625ZM89.825 26.1H103.425V23.7H89.825V26.1ZM103.425 26.1C105.21 26.1 106.769 25.6529 107.874 24.5485C108.978 23.4441 109.425 21.885 109.425 20.1H107.025C107.025 21.515 106.672 22.3559 106.176 22.8515C105.681 23.3471 104.84 23.7 103.425 23.7V26.1ZM109.425 20.1V18.5H107.025V20.1H109.425ZM144.622 32.9H143.422V34.1H144.622V32.9ZM158.222 32.9V34.1H159.422V32.9H158.222ZM170.622 57.7L170.746 58.8936L171.822 58.7821V57.7H170.622ZM133.902 56.02L133.053 56.8685L133.053 56.8685L133.902 56.02ZM133.982 18.74L134.83 19.5885L134.83 19.5885L133.982 18.74ZM168.782 18.74L167.923 19.5785L167.933 19.5886L167.943 19.5985L168.782 18.74ZM172.222 42.9V44.1H173.422V42.9H172.222ZM144.622 42.9V41.7H143.422V42.9H144.622ZM145.422 48.1L146.27 47.2515L146.27 47.2515L145.422 48.1ZM170.622 47.7H171.822V46.4021L170.528 46.5037L170.622 47.7ZM147.822 24.1C146.57 24.1 145.411 24.4137 144.573 25.2515C143.736 26.0892 143.422 27.2484 143.422 28.5H145.822C145.822 27.6183 146.041 27.1774 146.27 26.9485C146.499 26.7196 146.94 26.5 147.822 26.5V24.1ZM143.422 28.5V32.9H145.822V28.5H143.422ZM144.622 34.1H158.222V31.7H144.622V34.1ZM159.422 32.9V28.5H157.022V32.9H159.422ZM159.422 28.5C159.422 27.2484 159.108 26.0892 158.27 25.2515C157.433 24.4137 156.274 24.1 155.022 24.1V26.5C155.904 26.5 156.344 26.7196 156.573 26.9485C156.802 27.1774 157.022 27.6183 157.022 28.5H159.422ZM155.022 24.1H147.822V26.5H155.022V24.1ZM170.498 56.5064C160.237 57.5697 150.946 58.1 142.622 58.1V60.5C151.045 60.5 160.42 59.9636 170.746 58.8936L170.498 56.5064ZM142.622 58.1C139.254 58.1 136.673 57.0944 134.75 55.1715L133.053 56.8685C135.504 59.3189 138.736 60.5 142.622 60.5V58.1ZM134.75 55.1715C132.827 53.2486 131.822 50.6677 131.822 47.3H129.422C129.422 51.1857 130.603 54.4181 133.053 56.8685L134.75 55.1715ZM131.822 47.3V28.1H129.422V47.3H131.822ZM131.822 28.1C131.822 24.3302 132.871 21.5481 134.83 19.5885L133.133 17.8915C130.613 20.4119 129.422 23.8698 129.422 28.1H131.822ZM134.83 19.5885C136.849 17.5704 139.661 16.5 143.422 16.5V14.1C139.182 14.1 135.702 15.3229 133.133 17.8915L134.83 19.5885ZM143.422 16.5H159.422V14.1H143.422V16.5ZM159.422 16.5C163.184 16.5 165.962 17.5707 167.923 19.5785L169.64 17.9015C167.121 15.3226 163.66 14.1 159.422 14.1V16.5ZM167.943 19.5985C169.951 21.5595 171.022 24.3382 171.022 28.1H173.422C173.422 23.8618 172.199 20.4005 169.62 17.8815L167.943 19.5985ZM171.022 28.1V42.9H173.422V28.1H171.022ZM172.222 41.7H144.622V44.1H172.222V41.7ZM143.422 42.9V46.1H145.822V42.9H143.422ZM143.422 46.1C143.422 47.1968 143.8 48.1754 144.573 48.9485L146.27 47.2515C145.977 46.9579 145.822 46.6032 145.822 46.1H143.422ZM144.573 48.9485C145.346 49.7216 146.325 50.1 147.422 50.1V47.7C146.919 47.7 146.564 47.5451 146.27 47.2515L144.573 48.9485ZM147.422 50.1C152.75 50.1 160.521 49.697 170.716 48.8963L170.528 46.5037C160.349 47.303 152.654 47.7 147.422 47.7V50.1ZM169.422 47.7V57.7H171.822V47.7H169.422ZM217.791 20.1L216.823 20.8096L217.505 21.7396L218.461 21.0951L217.791 20.1ZM225.711 16.5L226.017 17.6602L226.024 17.6583L226.032 17.6562L225.711 16.5ZM242.911 18.58L242.062 19.4285L242.062 19.4285L242.911 18.58ZM246.191 58.5V59.7H247.391V58.5H246.191ZM232.191 58.5H230.991V59.7H232.191V58.5ZM219.791 28.5L219.461 27.3462L218.591 27.5948V28.5H219.791ZM219.791 58.5V59.7H220.991V58.5H219.791ZM205.791 58.5H204.591V59.7H205.791V58.5ZM204.991 27.7L204.142 28.5485L204.142 28.5485L204.991 27.7ZM193.391 28.5L193.061 27.3462L192.191 27.5948V28.5H193.391ZM193.391 58.5V59.7H194.591V58.5H193.391ZM179.391 58.5H178.191V59.7H179.391V58.5ZM179.391 16.1V14.9H178.191V16.1H179.391ZM191.791 16.1L192.967 15.8647L192.774 14.9H191.791V16.1ZM192.591 20.1L191.414 20.3353L191.763 22.0831L193.251 21.1017L192.591 20.1ZM200.271 16.5L200.6 17.6538L200.608 17.6517L200.615 17.6494L200.271 16.5ZM207.791 16.5C211.768 16.5 214.725 17.9483 216.823 20.8096L218.758 19.3904C216.163 15.8517 212.453 14.1 207.791 14.1V16.5ZM218.461 21.0951C220.805 19.5159 223.322 18.3722 226.017 17.6602L225.404 15.3398C222.446 16.1211 219.683 17.3774 217.12 19.1049L218.461 21.0951ZM226.032 17.6562C228.84 16.8762 231.288 16.5 233.391 16.5V14.1C231.013 14.1 228.341 14.5238 225.389 15.3438L226.032 17.6562ZM233.391 16.5H234.191V14.1H233.391V16.5ZM234.191 16.5C237.558 16.5 240.139 17.5056 242.062 19.4285L243.759 17.7315C241.309 15.2811 238.076 14.1 234.191 14.1V16.5ZM242.062 19.4285C243.985 21.3514 244.991 23.9323 244.991 27.3H247.391C247.391 23.4143 246.21 20.1819 243.759 17.7315L242.062 19.4285ZM244.991 27.3V58.5H247.391V27.3H244.991ZM246.191 57.3H232.191V59.7H246.191V57.3ZM233.391 58.5V29.7H230.991V58.5H233.391ZM233.391 29.7C233.391 28.6032 233.012 27.6246 232.239 26.8515L230.542 28.5485C230.836 28.8421 230.991 29.1968 230.991 29.7H233.391ZM232.239 26.8515C231.466 26.0784 230.487 25.7 229.391 25.7V28.1C229.894 28.1 230.249 28.2549 230.542 28.5485L232.239 26.8515ZM229.391 25.7H228.991V28.1H229.391V25.7ZM228.991 25.7C226.432 25.7 223.244 26.2653 219.461 27.3462L220.12 29.6538C223.804 28.6014 226.749 28.1 228.991 28.1V25.7ZM218.591 28.5V58.5H220.991V28.5H218.591ZM219.791 57.3H205.791V59.7H219.791V57.3ZM206.991 58.5V29.7H204.591V58.5H206.991ZM206.991 29.7C206.991 28.6032 206.612 27.6246 205.839 26.8515L204.142 28.5485C204.436 28.8421 204.591 29.1968 204.591 29.7H206.991ZM205.839 26.8515C205.066 26.0784 204.087 25.7 202.991 25.7V28.1C203.494 28.1 203.849 28.2549 204.142 28.5485L205.839 26.8515ZM202.991 25.7H202.591V28.1H202.991V25.7ZM202.591 25.7C200.032 25.7 196.844 26.2653 193.061 27.3462L193.72 29.6538C197.404 28.6014 200.349 28.1 202.591 28.1V25.7ZM192.191 28.5V58.5H194.591V28.5H192.191ZM193.391 57.3H179.391V59.7H193.391V57.3ZM180.591 58.5V16.1H178.191V58.5H180.591ZM179.391 17.3H191.791V14.9H179.391V17.3ZM190.614 16.3353L191.414 20.3353L193.767 19.8647L192.967 15.8647L190.614 16.3353ZM193.251 21.1017C195.667 19.5087 198.116 18.3636 200.6 17.6538L199.941 15.3462C197.199 16.1297 194.528 17.3847 191.93 19.0983L193.251 21.1017ZM200.615 17.6494C203.223 16.867 205.339 16.5 206.991 16.5V14.1C205.016 14.1 202.651 14.533 199.926 15.3506L200.615 17.6494ZM206.991 16.5H207.791V14.1H206.991V16.5ZM60.3922 105.7L59.2585 106.093L60.3922 109.361L61.5259 106.093L60.3922 105.7ZM73.9922 66.5V65.3H73.1383L72.8585 66.1067L73.9922 66.5ZM89.5922 66.5L90.7145 66.9249L91.3296 65.3H89.5922V66.5ZM68.3922 122.5V123.7H69.221L69.5145 122.925L68.3922 122.5ZM52.3922 122.5L51.2699 122.925L51.5634 123.7H52.3922V122.5ZM31.1922 66.5V65.3H29.4548L30.0699 66.9249L31.1922 66.5ZM46.7922 66.5L47.9259 66.1067L47.646 65.3H46.7922V66.5ZM61.5259 106.093L75.1259 66.8933L72.8585 66.1067L59.2585 105.307L61.5259 106.093ZM73.9922 67.7H89.5922V65.3H73.9922V67.7ZM88.4699 66.0751L67.2699 122.075L69.5145 122.925L90.7145 66.9249L88.4699 66.0751ZM68.3922 121.3H52.3922V123.7H68.3922V121.3ZM53.5145 122.075L32.3145 66.0751L30.0699 66.9249L51.2699 122.925L53.5145 122.075ZM31.1922 67.7H46.7922V65.3H31.1922V67.7ZM45.6585 66.8933L59.2585 106.093L61.5259 105.307L47.9259 66.1067L45.6585 66.8933ZM110.389 81.7H111.589V80.5H110.389V81.7ZM110.389 122.5V123.7H111.589V122.5H110.389ZM96.3891 122.5H95.1891V123.7H96.3891V122.5ZM96.3891 92.5H97.5891V91.3H96.3891V92.5ZM90.3891 92.5H89.1891V93.7H90.3891V92.5ZM90.3891 81.7V80.5H89.1891V81.7H90.3891ZM96.3891 65.7V64.5H95.1891V65.7H96.3891ZM110.389 65.7H111.589V64.5H110.389V65.7ZM110.389 76.9V78.1H111.589V76.9H110.389ZM96.3891 76.9H95.1891V78.1H96.3891V76.9ZM109.189 81.7V122.5H111.589V81.7H109.189ZM110.389 121.3H96.3891V123.7H110.389V121.3ZM97.5891 122.5V92.5H95.1891V122.5H97.5891ZM96.3891 91.3H90.3891V93.7H96.3891V91.3ZM91.5891 92.5V81.7H89.1891V92.5H91.5891ZM90.3891 82.9H110.389V80.5H90.3891V82.9ZM96.3891 66.9H110.389V64.5H96.3891V66.9ZM109.189 65.7V76.9H111.589V65.7H109.189ZM110.389 75.7H96.3891V78.1H110.389V75.7ZM97.5891 76.9V65.7H95.1891V76.9H97.5891ZM132.414 92.5L132.071 91.3501L131.214 91.6059V92.5H132.414ZM132.414 122.5V123.7H133.614V122.5H132.414ZM118.414 122.5H117.214V123.7H118.414V122.5ZM118.414 80.1V78.9H117.214V80.1H118.414ZM130.814 80.1L131.991 79.8647L131.798 78.9H130.814V80.1ZM131.614 84.1L130.437 84.3353L130.787 86.0831L132.275 85.1017L131.614 84.1ZM139.294 80.5L139.624 81.6538L139.631 81.6517L139.639 81.6494L139.294 80.5ZM158.334 82.58L157.486 83.4285L157.486 83.4285L158.334 82.58ZM161.614 122.5V123.7H162.814V122.5H161.614ZM147.614 122.5H146.414V123.7H147.614V122.5ZM146.814 91.7L147.663 90.8515L147.663 90.8515L146.814 91.7ZM142.014 89.7C139.041 89.7 135.722 90.2602 132.071 91.3501L132.757 93.6499C136.253 92.6065 139.334 92.1 142.014 92.1V89.7ZM131.214 92.5V122.5H133.614V92.5H131.214ZM132.414 121.3H118.414V123.7H132.414V121.3ZM119.614 122.5V80.1H117.214V122.5H119.614ZM118.414 81.3H130.814V78.9H118.414V81.3ZM129.637 80.3353L130.437 84.3353L132.791 83.8647L131.991 79.8647L129.637 80.3353ZM132.275 85.1017C134.69 83.5087 137.139 82.3636 139.624 81.6538L138.964 79.3462C136.222 80.1297 133.551 81.3847 130.953 83.0983L132.275 85.1017ZM139.639 81.6494C142.247 80.867 144.362 80.5 146.014 80.5V78.1C144.039 78.1 141.675 78.533 138.949 79.3506L139.639 81.6494ZM146.014 80.5H149.614V78.1H146.014V80.5ZM149.614 80.5C152.982 80.5 155.563 81.5056 157.486 83.4285L159.183 81.7315C156.732 79.2811 153.5 78.1 149.614 78.1V80.5ZM157.486 83.4285C159.408 85.3514 160.414 87.9323 160.414 91.3H162.814C162.814 87.4143 161.633 84.1819 159.183 81.7315L157.486 83.4285ZM160.414 91.3V122.5H162.814V91.3H160.414ZM161.614 121.3H147.614V123.7H161.614V121.3ZM148.814 122.5V93.7H146.414V122.5H148.814ZM148.814 93.7C148.814 92.6032 148.436 91.6246 147.663 90.8515L145.966 92.5485C146.259 92.8421 146.414 93.1968 146.414 93.7H148.814ZM147.663 90.8515C146.89 90.0784 145.911 89.7 144.814 89.7V92.1C145.317 92.1 145.672 92.2549 145.966 92.5485L147.663 90.8515ZM144.814 89.7H142.014V92.1H144.814V89.7ZM198.805 122.5L197.628 122.735L197.821 123.7H198.805V122.5ZM198.005 118.5L199.181 118.265L198.832 116.517L197.344 117.498L198.005 118.5ZM190.245 122.18L190.574 123.334L190.582 123.332L190.59 123.329L190.245 122.18ZM171.285 120.02L170.436 120.869L170.436 120.869L171.285 120.02ZM171.365 83.54L172.213 84.3885L172.213 84.3885L171.365 83.54ZM197.205 80.1V81.3H198.405V80.1H197.205ZM197.205 66.5V65.3H196.005V66.5H197.205ZM211.205 66.5H212.405V65.3H211.205V66.5ZM211.205 122.5V123.7H212.405V122.5H211.205ZM197.205 110.1L197.548 111.25L198.405 110.994V110.1H197.205ZM197.205 90.9H198.405V89.7H197.205V90.9ZM182.805 110.9L183.653 110.051L183.653 110.051L182.805 110.9ZM199.981 122.265L199.181 118.265L196.828 118.735L197.628 122.735L199.981 122.265ZM197.344 117.498C194.927 119.092 192.446 120.267 189.9 121.031L190.59 123.329C193.377 122.493 196.069 121.214 198.665 119.502L197.344 117.498ZM189.915 121.026C187.361 121.756 185.266 122.1 183.605 122.1V124.5C185.57 124.5 187.902 124.097 190.574 123.334L189.915 121.026ZM183.605 122.1H180.005V124.5H183.605V122.1ZM180.005 122.1C176.637 122.1 174.056 121.094 172.133 119.171L170.436 120.869C172.887 123.319 176.119 124.5 180.005 124.5V122.1ZM172.133 119.171C170.21 117.249 169.205 114.668 169.205 111.3H166.805C166.805 115.186 167.986 118.418 170.436 120.869L172.133 119.171ZM169.205 111.3V92.9H166.805V111.3H169.205ZM169.205 92.9C169.205 89.1302 170.254 86.3481 172.213 84.3885L170.516 82.6915C167.996 85.2119 166.805 88.6698 166.805 92.9H169.205ZM172.213 84.3885C174.231 82.3704 177.044 81.3 180.805 81.3V78.9C176.565 78.9 173.085 80.1229 170.516 82.6915L172.213 84.3885ZM180.805 81.3H197.205V78.9H180.805V81.3ZM198.405 80.1V66.5H196.005V80.1H198.405ZM197.205 67.7H211.205V65.3H197.205V67.7ZM210.005 66.5V122.5H212.405V66.5H210.005ZM211.205 121.3H198.805V123.7H211.205V121.3ZM187.605 112.9C190.578 112.9 193.897 112.34 197.548 111.25L196.861 108.95C193.366 109.993 190.285 110.5 187.605 110.5V112.9ZM198.405 110.1V90.9H196.005V110.1H198.405ZM197.205 89.7H185.205V92.1H197.205V89.7ZM185.205 89.7C183.953 89.7 182.794 90.0137 181.956 90.8515C181.118 91.6892 180.805 92.8484 180.805 94.1H183.205C183.205 93.2183 183.424 92.7774 183.653 92.5485C183.882 92.3196 184.323 92.1 185.205 92.1V89.7ZM180.805 94.1V108.9H183.205V94.1H180.805ZM180.805 108.9C180.805 109.997 181.183 110.975 181.956 111.749L183.653 110.051C183.36 109.758 183.205 109.403 183.205 108.9H180.805ZM181.956 111.749C182.729 112.522 183.708 112.9 184.805 112.9V110.5C184.302 110.5 183.947 110.345 183.653 110.051L181.956 111.749ZM184.805 112.9H187.605V110.5H184.805V112.9ZM258.955 119.94L259.804 120.789L259.804 120.789L258.955 119.94ZM221.755 119.94L220.897 120.778L220.907 120.789L220.917 120.798L221.755 119.94ZM221.755 82.74L222.604 83.5885L222.604 83.5885L221.755 82.74ZM258.955 82.74L258.097 83.5785L258.107 83.5886L258.117 83.5985L258.955 82.74ZM261.195 110.5C261.195 114.261 260.125 117.073 258.107 119.091L259.804 120.789C262.372 118.22 263.595 114.739 263.595 110.5H261.195ZM258.107 119.091C256.147 121.051 253.365 122.1 249.595 122.1V124.5C253.826 124.5 257.283 123.309 259.804 120.789L258.107 119.091ZM249.595 122.1H231.195V124.5H249.595V122.1ZM231.195 122.1C227.427 122.1 224.611 121.051 222.594 119.082L220.917 120.798C223.487 123.309 226.964 124.5 231.195 124.5V122.1ZM222.614 119.102C220.644 117.085 219.595 114.268 219.595 110.5H217.195C217.195 114.732 218.387 118.209 220.897 120.778L222.614 119.102ZM219.595 110.5V92.1H217.195V110.5H219.595ZM219.595 92.1C219.595 88.3302 220.644 85.5481 222.604 83.5885L220.907 81.8915C218.386 84.4119 217.195 87.8698 217.195 92.1H219.595ZM222.604 83.5885C224.622 81.5704 227.435 80.5 231.195 80.5V78.1C226.956 78.1 223.475 79.3229 220.907 81.8915L222.604 83.5885ZM231.195 80.5H249.595V78.1H231.195V80.5ZM249.595 80.5C253.357 80.5 256.136 81.5707 258.097 83.5785L259.814 81.9015C257.295 79.3226 253.834 78.1 249.595 78.1V80.5ZM258.117 83.5985C260.125 85.5595 261.195 88.3382 261.195 92.1H263.595C263.595 87.8618 262.373 84.4005 259.794 81.8815L258.117 83.5985ZM261.195 92.1V110.5H263.595V92.1H261.195ZM249.595 93.3C249.595 92.0484 249.282 90.8892 248.444 90.0515C247.606 89.2137 246.447 88.9 245.195 88.9V91.3C246.077 91.3 246.518 91.5196 246.747 91.7485C246.976 91.9774 247.195 92.4183 247.195 93.3H249.595ZM245.195 88.9H235.595V91.3H245.195V88.9ZM235.595 88.9C234.344 88.9 233.185 89.2137 232.347 90.0515C231.509 90.8892 231.195 92.0484 231.195 93.3H233.595C233.595 92.4183 233.815 91.9774 234.044 91.7485C234.273 91.5196 234.714 91.3 235.595 91.3V88.9ZM231.195 93.3V109.3H233.595V93.3H231.195ZM231.195 109.3C231.195 110.552 231.509 111.711 232.347 112.549C233.185 113.386 234.344 113.7 235.595 113.7V111.3C234.714 111.3 234.273 111.08 234.044 110.851C233.815 110.623 233.595 110.182 233.595 109.3H231.195ZM235.595 113.7H245.195V111.3H235.595V113.7ZM245.195 113.7C246.447 113.7 247.606 113.386 248.444 112.549C249.282 111.711 249.595 110.552 249.595 109.3H247.195C247.195 110.182 246.976 110.623 246.747 110.851C246.518 111.08 246.077 111.3 245.195 111.3V113.7ZM249.595 109.3V93.3H247.195V109.3H249.595ZM269.586 110.5V109.3H268.386V110.5H269.586ZM283.986 110.5H285.186V109.3H283.986V110.5ZM283.986 122.5V123.7H285.186V122.5H283.986ZM269.586 122.5H268.386V123.7H269.586V122.5ZM271.186 105.7L269.991 105.814L270.095 106.9H271.186V105.7ZM269.586 88.9H268.386V88.957L268.391 89.0138L269.586 88.9ZM269.586 66.5V65.3H268.386V66.5H269.586ZM283.986 66.5H285.186V65.3H283.986V66.5ZM283.986 88.9L285.181 89.0138L285.186 88.957V88.9H283.986ZM282.386 105.7V106.9H283.477L283.581 105.814L282.386 105.7ZM269.586 111.7H283.986V109.3H269.586V111.7ZM282.786 110.5V122.5H285.186V110.5H282.786ZM283.986 121.3H269.586V123.7H283.986V121.3ZM270.786 122.5V110.5H268.386V122.5H270.786ZM272.381 105.586L270.781 88.7862L268.391 89.0138L269.991 105.814L272.381 105.586ZM270.786 88.9V66.5H268.386V88.9H270.786ZM269.586 67.7H283.986V65.3H269.586V67.7ZM282.786 66.5V88.9H285.186V66.5H282.786ZM282.791 88.7862L281.191 105.586L283.581 105.814L285.181 89.0138L282.791 88.7862ZM282.386 104.5H271.186V106.9H282.386V104.5Z" fill="#2A1454" mask="url(#path-1-outside-1_8_2)"/>
</svg>