
<svg width="320" height="67" viewBox="0 0 320 67" fill="none" xmlns="http://www.w3.org/2000/svg">
<mask id="path-1-outside-1_8_2" maskUnits="userSpaceOnUse" x="33.5" y="0" width="253" height="64" fill="black">
<rect fill="white" x="33.5" width="253" height="64"/>
<path d="M72.6597 48.4V61L34.8597 44.2V33.28L72.6597 16.48V29.08L48.7197 38.74L72.6597 48.4ZM111.7 61L110.86 56.8C108.228 58.536 105.512 59.824 102.712 60.664C99.968 61.448 97.644 61.84 95.74 61.84H91.96C88.152 61.84 85.1 60.692 82.804 58.396C80.508 56.1 79.36 53.048 79.36 49.24V29.92C79.36 25.72 80.536 22.444 82.888 20.092C85.296 17.684 88.6 16.48 92.8 16.48H110.02V2.2H124.72V61H111.7ZM99.94 49.66C102.908 49.66 106.268 49.1 110.02 47.98V27.82H97.42C95.18 27.82 94.06 28.94 94.06 31.18V46.72C94.06 47.56 94.34 48.26 94.9 48.82C95.46 49.38 96.16 49.66 97 49.66H99.94ZM151.59 18.16V61H136.89V29.5H130.59V18.16H151.59ZM136.89 1.36H151.59V13.12H136.89V1.36ZM189.836 16.48H205.376L188.576 61H171.776L154.976 16.48H170.516L180.176 46.72L189.836 16.48ZM204.543 61L229.743 2.2H244.023L219.663 61H204.543ZM271.3 38.74L247.36 29.08V16.48L285.16 33.28V44.2L247.36 61V48.4L271.3 38.74Z"/>
</mask>
<path d="M72.6597 48.4H73.8597V47.5902L73.1087 47.2872L72.6597 48.4ZM72.6597 61L72.1723 62.0966L73.8597 62.8465V61H72.6597ZM34.8597 44.2H33.6597V44.9798L34.3723 45.2966L34.8597 44.2ZM34.8597 33.28L34.3723 32.1834L33.6597 32.5002V33.28H34.8597ZM72.6597 16.48H73.8597V14.6335L72.1723 15.3834L72.6597 16.48ZM72.6597 29.08L73.1087 30.1928L73.8597 29.8898V29.08H72.6597ZM48.7197 38.74L48.2707 37.6272L45.5128 38.74L48.2707 39.8528L48.7197 38.74ZM71.4597 48.4V61H73.8597V48.4H71.4597ZM73.1471 59.9034L35.3471 43.1034L34.3723 45.2966L72.1723 62.0966L73.1471 59.9034ZM36.0597 44.2V33.28H33.6597V44.2H36.0597ZM35.3471 34.3766L73.1471 17.5766L72.1723 15.3834L34.3723 32.1834L35.3471 34.3766ZM71.4597 16.48V29.08H73.8597V16.48H71.4597ZM72.2107 27.9672L48.2707 37.6272L49.1687 39.8528L73.1087 30.1928L72.2107 27.9672ZM48.2707 39.8528L72.2107 49.5128L73.1087 47.2872L49.1687 37.6272L48.2707 39.8528ZM111.7 61L110.523 61.2353L110.716 62.2H111.7V61ZM110.86 56.8L112.037 56.5647L111.687 54.8169L110.199 55.7983L110.86 56.8ZM102.712 60.664L103.042 61.8178L103.049 61.8157L103.057 61.8134L102.712 60.664ZM82.804 58.396L81.9555 59.2445L81.9555 59.2445L82.804 58.396ZM82.888 20.092L83.7365 20.9405L83.7365 20.9405L82.888 20.092ZM110.02 16.48V17.68H111.22V16.48H110.02ZM110.02 2.2V0.999996H108.82V2.2H110.02ZM124.72 2.2H125.92V0.999996H124.72V2.2ZM124.72 61V62.2H125.92V61H124.72ZM110.02 47.98L110.363 49.1299L111.22 48.8741V47.98H110.02ZM110.02 27.82H111.22V26.62H110.02V27.82ZM94.9 48.82L95.7485 47.9715L95.7485 47.9715L94.9 48.82ZM112.877 60.7647L112.037 56.5647L109.683 57.0353L110.523 61.2353L112.877 60.7647ZM110.199 55.7983C107.657 57.475 105.047 58.7107 102.367 59.5146L103.057 61.8134C105.977 60.9373 108.799 59.597 111.521 57.8017L110.199 55.7983ZM102.382 59.5102C99.6978 60.2772 97.4919 60.64 95.74 60.64V63.04C97.7961 63.04 100.238 62.6188 103.042 61.8178L102.382 59.5102ZM95.74 60.64H91.96V63.04H95.74V60.64ZM91.96 60.64C88.411 60.64 85.6848 59.5797 83.6525 57.5475L81.9555 59.2445C84.5152 61.8043 87.893 63.04 91.96 63.04V60.64ZM83.6525 57.5475C81.6203 55.5152 80.56 52.789 80.56 49.24H78.16C78.16 53.307 79.3957 56.6848 81.9555 59.2445L83.6525 57.5475ZM80.56 49.24V29.92H78.16V49.24H80.56ZM80.56 29.92C80.56 25.9502 81.665 23.0121 83.7365 20.9405L82.0395 19.2435C79.407 21.8759 78.16 25.4898 78.16 29.92H80.56ZM83.7365 20.9405C85.8693 18.8077 88.8395 17.68 92.8 17.68V15.28C88.3605 15.28 84.7227 16.5602 82.0395 19.2435L83.7365 20.9405ZM92.8 17.68H110.02V15.28H92.8V17.68ZM111.22 16.48V2.2H108.82V16.48H111.22ZM110.02 3.4H124.72V0.999996H110.02V3.4ZM123.52 2.2V61H125.92V2.2H123.52ZM124.72 59.8H111.7V62.2H124.72V59.8ZM99.94 50.86C103.055 50.86 106.533 50.2732 110.363 49.1299L109.677 46.8301C106.003 47.9268 102.761 48.46 99.94 48.46V50.86ZM111.22 47.98V27.82H108.82V47.98H111.22ZM110.02 26.62H97.42V29.02H110.02V26.62ZM97.42 26.62C96.115 26.62 94.9159 26.9471 94.0515 27.8115C93.1871 28.6759 92.86 29.875 92.86 31.18H95.26C95.26 30.245 95.4929 29.7641 95.7485 29.5085C96.0041 29.2529 96.485 29.02 97.42 29.02V26.62ZM92.86 31.18V46.72H95.26V31.18H92.86ZM92.86 46.72C92.86 47.8568 93.2517 48.8688 94.0515 49.6685L95.7485 47.9715C95.4283 47.6512 95.26 47.2632 95.26 46.72H92.86ZM94.0515 49.6685C94.8512 50.4683 95.8632 50.86 97 50.86V48.46C96.4568 48.46 96.0688 48.2917 95.7485 47.9715L94.0515 49.6685ZM97 50.86H99.94V48.46H97V50.86ZM151.59 18.16H152.79V16.96H151.59V18.16ZM151.59 61V62.2H152.79V61H151.59ZM136.89 61H135.69V62.2H136.89V61ZM136.89 29.5H138.09V28.3H136.89V29.5ZM130.59 29.5H129.39V30.7H130.59V29.5ZM130.59 18.16V16.96H129.39V18.16H130.59ZM136.89 1.36V0.159997H135.69V1.36H136.89ZM151.59 1.36H152.79V0.159997H151.59V1.36ZM151.59 13.12V14.32H152.79V13.12H151.59ZM136.89 13.12H135.69V14.32H136.89V13.12ZM150.39 18.16V61H152.79V18.16H150.39ZM151.59 59.8H136.89V62.2H151.59V59.8ZM138.09 61V29.5H135.69V61H138.09ZM136.89 28.3H130.59V30.7H136.89V28.3ZM131.79 29.5V18.16H129.39V29.5H131.79ZM130.59 19.36H151.59V16.96H130.59V19.36ZM136.89 2.56H151.59V0.159997H136.89V2.56ZM150.39 1.36V13.12H152.79V1.36H150.39ZM151.59 11.92H136.89V14.32H151.59V11.92ZM138.09 13.12V1.36H135.69V13.12H138.09ZM189.836 16.48V15.28H188.96L188.693 16.1148L189.836 16.48ZM205.376 16.48L206.499 16.9037L207.112 15.28H205.376V16.48ZM188.576 61V62.2H189.406L189.699 61.4237L188.576 61ZM171.776 61L170.654 61.4237L170.947 62.2H171.776V61ZM154.976 16.48V15.28H153.241L153.854 16.9037L154.976 16.48ZM170.516 16.48L171.66 16.1148L171.393 15.28H170.516V16.48ZM180.176 46.72L179.033 47.0852L180.176 50.6635L181.32 47.0852L180.176 46.72ZM189.836 17.68H205.376V15.28H189.836V17.68ZM204.254 16.0563L187.454 60.5763L189.699 61.4237L206.499 16.9037L204.254 16.0563ZM188.576 59.8H171.776V62.2H188.576V59.8ZM172.899 60.5763L156.099 16.0563L153.854 16.9037L170.654 61.4237L172.899 60.5763ZM154.976 17.68H170.516V15.28H154.976V17.68ZM169.373 16.8452L179.033 47.0852L181.32 46.3548L171.66 16.1148L169.373 16.8452ZM181.32 47.0852L190.98 16.8452L188.693 16.1148L179.033 46.3548L181.32 47.0852ZM204.543 61L203.44 60.5273L202.723 62.2H204.543V61ZM229.743 2.2V0.999996H228.952L228.64 1.72729L229.743 2.2ZM244.023 2.2L245.132 2.65928L245.819 0.999996H244.023V2.2ZM219.663 61V62.2H220.465L220.772 61.4593L219.663 61ZM205.646 61.4727L230.846 2.6727L228.64 1.72729L203.44 60.5273L205.646 61.4727ZM229.743 3.4H244.023V0.999996H229.743V3.4ZM242.914 1.74071L218.554 60.5407L220.772 61.4593L245.132 2.65928L242.914 1.74071ZM219.663 59.8H204.543V62.2H219.663V59.8ZM271.3 38.74L271.749 39.8528L274.507 38.74L271.749 37.6272L271.3 38.74ZM247.36 29.08H246.16V29.8898L246.911 30.1928L247.36 29.08ZM247.36 16.48L247.847 15.3834L246.16 14.6335V16.48H247.36ZM285.16 33.28H286.36V32.5002L285.647 32.1834L285.16 33.28ZM285.16 44.2L285.647 45.2966L286.36 44.9798V44.2H285.16ZM247.36 61H246.16V62.8465L247.847 62.0966L247.36 61ZM247.36 48.4L246.911 47.2872L246.16 47.5902V48.4H247.36ZM271.749 37.6272L247.809 27.9672L246.911 30.1928L270.851 39.8528L271.749 37.6272ZM248.56 29.08V16.48H246.16V29.08H248.56ZM246.873 17.5766L284.673 34.3766L285.647 32.1834L247.847 15.3834L246.873 17.5766ZM283.96 33.28V44.2H286.36V33.28H283.96ZM284.673 43.1034L246.873 59.9034L247.847 62.0966L285.647 45.2966L284.673 43.1034ZM248.56 61V48.4H246.16V61H248.56ZM247.809 49.5128L271.749 39.8528L270.851 37.6272L246.911 47.2872L247.809 49.5128Z" fill="#2A1454" mask="url(#path-1-outside-1_8_2)"/>
</svg>
