
<svg width="490" height="263" viewBox="0 0 490 263" fill="none" xmlns="http://www.w3.org/2000/svg">
<mask id="path-1-outside-1_8_2" maskUnits="userSpaceOnUse" x="6.5" y="6.5" width="477" height="232" fill="black">
<rect fill="white" x="6.5" y="6.5" width="477" height="232"/>
<path d="M154.922 188.3V237.5L7.32172 171.9V129.26L154.922 63.66V112.86L61.4417 150.58L154.922 188.3ZM167.965 237.5L266.365 7.89998H322.125L227.005 237.5H167.965ZM428.635 150.58L335.155 112.86V63.66L482.755 129.26V171.9L335.155 237.5V188.3L428.635 150.58Z"/>
</mask>
<path d="M154.922 188.3H155.422V187.963L155.109 187.836L154.922 188.3ZM154.922 237.5L154.719 237.957L155.422 238.269V237.5H154.922ZM7.32172 171.9H6.82172V172.225L7.11865 172.357L7.32172 171.9ZM7.32172 129.26L7.11865 128.803L6.82172 128.935V129.26H7.32172ZM154.922 63.66H155.422V62.8906L154.719 63.2031L154.922 63.66ZM154.922 112.86L155.109 113.324L155.422 113.197V112.86H154.922ZM61.4417 150.58L61.2546 150.116L60.1055 150.58L61.2546 151.044L61.4417 150.58ZM154.422 188.3V237.5H155.422V188.3H154.422ZM155.125 237.043L7.52479 171.443L7.11865 172.357L154.719 237.957L155.125 237.043ZM7.82172 171.9V129.26H6.82172V171.9H7.82172ZM7.52479 129.717L155.125 64.1169L154.719 63.2031L7.11865 128.803L7.52479 129.717ZM154.422 63.66V112.86H155.422V63.66H154.422ZM154.735 112.396L61.2546 150.116L61.6288 151.044L155.109 113.324L154.735 112.396ZM61.2546 151.044L154.735 188.764L155.109 187.836L61.6288 150.116L61.2546 151.044ZM167.965 237.5L167.505 237.303L167.207 238H167.965V237.5ZM266.365 7.89998V7.39998H266.035L265.905 7.70302L266.365 7.89998ZM322.125 7.89998L322.587 8.09135L322.873 7.39998H322.125V7.89998ZM227.005 237.5V238H227.339L227.467 237.691L227.005 237.5ZM168.424 237.697L266.824 8.09694L265.905 7.70302L167.505 237.303L168.424 237.697ZM266.365 8.39998H322.125V7.39998H266.365V8.39998ZM321.663 7.70861L226.543 237.309L227.467 237.691L322.587 8.09135L321.663 7.70861ZM227.005 237H167.965V238H227.005V237ZM428.635 150.58L428.822 151.044L429.971 150.58L428.822 150.116L428.635 150.58ZM335.155 112.86H334.655V113.197L334.968 113.324L335.155 112.86ZM335.155 63.66L335.358 63.2031L334.655 62.8906V63.66H335.155ZM482.755 129.26H483.255V128.935L482.958 128.803L482.755 129.26ZM482.755 171.9L482.958 172.357L483.255 172.225V171.9H482.755ZM335.155 237.5H334.655V238.269L335.358 237.957L335.155 237.5ZM335.155 188.3L334.968 187.836L334.655 187.963V188.3H335.155ZM428.822 150.116L335.342 112.396L334.968 113.324L428.448 151.044L428.822 150.116ZM335.655 112.86V63.66H334.655V112.86H335.655ZM334.952 64.1169L482.552 129.717L482.958 128.803L335.358 63.2031L334.952 64.1169ZM482.255 129.26V171.9H483.255V129.26H482.255ZM482.552 171.443L334.952 237.043L335.358 237.957L482.958 172.357L482.552 171.443ZM335.655 237.5V188.3H334.655V237.5H335.655ZM335.342 188.764L428.822 151.044L428.448 150.116L334.968 187.836L335.342 188.764Z" fill="#2A1454" mask="url(#path-1-outside-1_8_2)"/>
</svg>