
<svg width="200" height="200" viewBox="0 0 200 200" fill="none" xmlns="http://www.w3.org/2000/svg">
<path d="M100.234 100C100.234 81.5906 115.158 66.6668 133.567 66.6668C151.977 66.6668 166.9 81.591 166.9 100C166.9 118.41 151.976 133.333 133.567 133.333C115.157 133.333 100.234 118.409 100.234 100Z" fill="#00BCFF"/>
<path d="M33.5672 166.667C33.5672 148.257 48.491 133.334 66.9004 133.334L84.6641 123.955L100.234 133.334V166.667C100.234 185.077 85.3098 200 66.9004 200C48.491 200 33.5672 185.076 33.5672 166.667Z" fill="#00CF7F"/>
<path d="M100.234 0L82.0957 31.5117L100.234 66.6664H133.1C151.509 66.6664 166.433 51.7426 166.433 33.3332C166.433 14.9238 151.509 0 133.1 0H100.234Z" fill="#FF7361"/>
<path d="M33.0992 33.3332C33.0992 51.7426 48.023 66.6664 66.4324 66.6664L84.1148 73.4961L100.233 66.6664V0H66.432C48.023 0 33.0992 14.9238 33.0992 33.3332Z" fill="#FF4D12"/>
<path d="M33.5672 100C33.5672 118.41 48.491 133.333 66.9004 133.333H100.234V66.6664H66.9004C48.491 66.6664 33.5672 81.5906 33.5672 100Z" fill="#B659FF"/>
</svg>