
<svg width="200" height="200" viewBox="0 0 200 200" fill="none" xmlns="http://www.w3.org/2000/svg">
<path d="M184.199 92.207L107.813 15.8008C105.698 13.6881 102.831 12.5013 99.8418 12.5013C96.8526 12.5013 93.9857 13.6881 91.8711 15.8008L75.9883 31.6719L96.1133 51.7969C106.684 48.2266 116.691 58.3477 113.063 68.8594L132.461 88.2578C145.832 83.6484 156.359 100.367 146.316 110.402C135.969 120.75 118.891 109.281 124.441 95.8164L106.336 77.7344V125.332C116.219 130.23 115.031 141.68 109.883 146.816C107.367 149.33 103.957 150.743 100.4 150.743C96.8441 150.743 93.4334 149.33 90.918 146.816C84.0547 139.941 86.5938 128.492 95.3125 124.941V76.8945C87.1875 73.5703 85.7031 64.8867 88.0313 59.3164L68.1914 39.4531L15.8008 91.8516C13.6871 93.9657 12.4997 96.8328 12.4997 99.8223C12.4997 102.812 13.6871 105.679 15.8008 107.793L92.2109 184.199C94.3249 186.312 97.1912 187.498 100.18 187.498C103.168 187.498 106.034 186.312 108.148 184.199L184.199 108.148C186.313 106.034 187.5 103.167 187.5 100.178C187.5 97.1882 186.313 94.3212 184.199 92.207Z" fill="url(#paint0_linear_88_2)"/>
<defs>
<linearGradient id="paint0_linear_88_2" x1="100" y1="12.5013" x2="100" y2="187.498" gradientUnits="userSpaceOnUse">
<stop stop-color="#FF5F35"/>
<stop offset="0.505" stop-color="#E4552F"/>
<stop offset="1" stop-color="#CA4B2A"/>
</linearGradient>
</defs>
</svg>
