
<svg width="200" height="200" viewBox="0 0 200 200" fill="none" xmlns="http://www.w3.org/2000/svg">
<path d="M100 12.5C51.6797 12.5 12.5 52.6953 12.5 102.227C12.5 141.875 37.5781 175.469 72.3437 187.344C72.8314 187.45 73.3291 187.502 73.8281 187.5C77.0703 187.5 78.3203 185.117 78.3203 183.047C78.3203 180.898 78.2422 175.273 78.2031 167.773C75.3088 168.452 72.3478 168.806 69.375 168.828C52.5391 168.828 48.7109 155.742 48.7109 155.742C44.7266 145.391 38.9844 142.617 38.9844 142.617C31.3672 137.266 38.9453 137.109 39.5312 137.109H39.5703C48.3594 137.891 52.9688 146.406 52.9688 146.406C57.3438 154.062 63.2031 156.211 68.4375 156.211C71.8986 156.142 75.3061 155.343 78.4375 153.867C79.2188 148.086 81.4844 144.141 83.9844 141.875C64.5703 139.609 44.1406 131.914 44.1406 97.5391C44.1406 87.7344 47.5391 79.7266 53.125 73.4766C52.2266 71.2109 49.2187 62.0703 53.9844 49.7266C54.6236 49.5736 55.2806 49.5079 55.9375 49.5313C59.1016 49.5313 66.25 50.7422 78.0469 58.9453C92.381 54.9348 107.541 54.9348 121.875 58.9453C133.672 50.7422 140.82 49.5313 143.984 49.5313C144.641 49.5079 145.298 49.5736 145.938 49.7266C150.703 62.0703 147.695 71.2109 146.797 73.4766C152.383 79.7656 155.781 87.7734 155.781 97.5391C155.781 131.992 135.313 139.57 115.82 141.797C118.945 144.57 121.758 150.039 121.758 158.398C121.758 170.391 121.641 180.078 121.641 183.008C121.641 185.117 122.852 187.5 126.094 187.5C126.619 187.502 127.142 187.45 127.656 187.344C162.461 175.469 187.5 141.836 187.5 102.227C187.5 52.6953 148.32 12.5 100 12.5Z" fill="url(#paint0_linear_81_10)"/>
<defs>
<linearGradient id="paint0_linear_81_10" x1="100" y1="12.5" x2="100" y2="187.5" gradientUnits="userSpaceOnUse">
<stop stop-color="#9C6BFF"/>
<stop offset="0.5" stop-color="#7D53D3"/>
<stop offset="1" stop-color="#6444A5"/>
</linearGradient>
</defs>
</svg>
