
<svg width="200" height="200" viewBox="0 0 200 200" fill="none" xmlns="http://www.w3.org/2000/svg">
<path d="M50 25C36.1929 25 25 36.1929 25 50V150C25 163.807 36.1929 175 50 175H150C163.807 175 175 163.807 175 150V50C175 36.1929 163.807 25 150 25H50ZM111.12 133.792C117.109 138.619 123.098 141.002 129.087 140.942C132.753 140.942 135.564 140.269 137.52 138.925C139.414 137.642 140.362 135.808 140.362 133.425C140.362 130.981 139.414 128.902 137.52 127.192C135.564 125.481 131.868 123.769 126.428 122.058C119.889 120.164 114.847 117.719 111.303 114.725C107.82 111.731 106.048 107.544 105.987 102.167C105.987 97.0942 108.187 92.8475 112.587 89.425C116.864 86.0025 122.334 84.2917 128.995 84.2917C138.284 84.2917 145.739 86.5525 151.362 91.075L144.945 101.067C142.684 99.2942 140.087 98.0108 137.153 97.2167C134.22 96.3 131.592 95.8417 129.27 95.8417C126.092 95.8417 123.556 96.4225 121.662 97.5833C119.767 98.7442 118.82 100.272 118.82 102.167C118.82 104.244 119.981 106.017 122.303 107.483C124.626 108.889 128.597 110.447 134.22 112.158C141.003 114.175 145.831 116.864 148.703 120.225C151.576 123.586 153.012 127.864 153.012 133.058C153.012 138.375 150.964 142.958 146.87 146.808C142.837 150.597 136.97 152.583 129.27 152.767C119.187 152.767 110.753 149.742 103.97 143.692L111.12 133.792ZM65.0338 139.108C66.9893 140.331 69.3421 140.942 72.0921 140.942C74.9643 140.942 77.3477 140.117 79.2421 138.467C81.1366 136.756 82.0838 133.792 82.0838 129.575V85.3917H94.4592V131.958C94.2758 139.169 92.1975 144.364 88.2258 147.542C85.9642 149.436 83.4892 150.781 80.8004 151.575C78.1116 152.369 75.5143 152.767 73.0088 152.767C68.4254 152.767 64.3616 151.972 60.8171 150.383C57.0283 148.672 53.8504 145.648 51.2838 141.308L59.9004 134.25C61.4893 136.389 63.2004 138.008 65.0338 139.108Z" fill="url(#paint0_linear_81_6)"/>
<defs>
<linearGradient id="paint0_linear_81_6" x1="100" y1="25" x2="100" y2="175" gradientUnits="userSpaceOnUse">
<stop stop-color="#FFE728"/>
<stop offset="0.5" stop-color="#D0BE2C"/>
<stop offset="1" stop-color="#B69318"/>
</linearGradient>
</defs>
</svg>