
<svg width="200" height="200" viewBox="0 0 200 200" fill="none" xmlns="http://www.w3.org/2000/svg">
<path d="M100 198.438C97.3828 198.438 94.7266 197.734 92.4219 196.406L68.3203 182.148C64.7266 180.117 66.4844 179.414 67.6562 179.023C72.4609 177.344 73.4375 176.992 78.5547 174.063C79.1016 173.75 79.8047 173.867 80.3516 174.219L98.8672 185.195C99.5313 185.586 100.469 185.586 101.094 185.195L173.242 143.555C173.906 143.164 174.336 142.383 174.336 141.602V58.3203C174.336 57.5 173.906 56.7578 173.203 56.3281L101.094 14.7266C100.43 14.3359 99.5313 14.3359 98.8672 14.7266L26.7969 56.3672C26.0937 56.7578 25.6641 57.5391 25.6641 58.3594V141.602C25.6641 142.383 26.0937 143.164 26.7969 143.516L46.5625 154.922C57.3047 160.273 63.8672 153.984 63.8672 147.617V65.4297C63.8672 64.2578 64.8047 63.3594 65.9766 63.3594H75.1172C76.25 63.3594 77.2266 64.2578 77.2266 65.4297V147.656C77.2266 161.953 69.4141 170.156 55.8594 170.156C51.6797 170.156 48.3984 170.156 39.2578 165.625L20.3516 154.727C15.6641 152.031 12.7734 146.992 12.7734 141.563V58.3203C12.7734 52.9297 15.6641 47.8516 20.3516 45.1562L92.4219 3.51562C96.9922 0.9375 103.047 0.9375 107.578 3.51562L179.727 45.1953C184.414 47.8906 187.305 52.9297 187.305 58.3594V141.602C187.305 146.992 184.414 152.031 179.727 154.766L107.578 196.406C105.273 197.734 102.656 198.438 100 198.438ZM158.242 116.367C158.242 100.781 147.695 96.6406 125.547 93.7109C103.125 90.7422 100.859 89.2187 100.859 83.9844C100.859 79.6484 102.773 73.8672 119.375 73.8672C134.18 73.8672 139.648 77.0703 141.914 87.0703C142.109 88.0078 142.969 88.7109 143.945 88.7109H153.32C153.906 88.7109 154.453 88.4766 154.844 88.0469C155.234 87.6172 155.43 87.0312 155.391 86.4453C153.945 69.2188 142.5 61.2109 119.375 61.2109C98.7891 61.2109 86.5234 69.8828 86.5234 84.4531C86.5234 100.234 98.75 104.609 118.477 106.562C142.109 108.867 143.945 112.344 143.945 116.992C143.945 125.039 137.461 128.477 122.266 128.477C103.164 128.477 98.9844 123.672 97.5781 114.18C97.4219 113.164 96.5625 112.422 95.5078 112.422H86.1719C85 112.422 84.1016 113.359 84.1016 114.492C84.1016 126.641 90.7031 141.133 122.305 141.133C145.117 141.094 158.242 132.07 158.242 116.367Z" fill="url(#paint0_linear_82_20)"/>
<defs>
<linearGradient id="paint0_linear_82_20" x1="100.039" y1="1.58203" x2="100.039" y2="198.438" gradientUnits="userSpaceOnUse">
<stop stop-color="#90C53F"/>
<stop offset="0.5" stop-color="#82B03A"/>
<stop offset="1" stop-color="#5D8028"/>
</linearGradient>
</defs>
</svg>