<svg width="200" height="200" viewBox="0 0 200 200" fill="none" xmlns="http://www.w3.org/2000/svg">
<path d="M120.4 135.328C115.674 142.01 110.778 148.095 105.846 153.455C119.782 166.979 132.742 173.312 139.933 169.161C147.124 165.009 148.12 150.618 143.376 131.787C136.267 133.378 128.55 134.577 120.4 135.328ZM109.483 136.054C106.367 136.183 103.204 136.249 100.003 136.249C96.8008 136.249 93.6375 136.183 90.5225 136.054C93.6617 140.157 96.84 143.957 100.003 147.421C103.165 143.957 106.343 140.157 109.483 136.054ZM151.489 70.2732C173.695 76.6432 188.198 87.2267 188.198 99.9992C188.198 112.771 173.695 123.355 151.489 129.725C157.076 152.141 155.161 169.992 144.1 176.378C133.039 182.763 116.623 175.496 100.003 159.45C83.3833 175.496 66.9663 182.763 55.9055 176.378C44.8447 169.992 42.9298 152.141 48.5163 129.725C26.3103 123.355 11.8083 112.771 11.8083 99.9992C11.8083 87.2267 26.3103 76.6432 48.5163 70.2732C42.9298 47.8573 44.8447 30.0063 55.9055 23.6203C66.9663 17.2343 83.3833 24.5016 100.003 40.5474C116.623 24.5016 133.039 17.2343 144.1 23.6203C155.161 30.0063 157.076 47.8573 151.489 70.2732ZM143.376 68.2106C148.12 49.3798 147.124 34.9888 139.933 30.8372C132.742 26.6855 119.782 33.0184 105.846 46.5424C110.778 51.9025 115.674 57.9874 120.4 64.6693C128.55 65.4212 136.267 66.6193 143.376 68.2106ZM56.6295 131.787C51.8853 150.618 52.8814 165.009 60.0722 169.161C67.2629 173.312 80.224 166.979 94.16 153.455C89.2275 148.095 84.3308 142.01 79.6052 135.328C71.4556 134.577 63.7375 133.378 56.6295 131.787ZM90.5225 63.9437C93.6375 63.8147 96.8008 63.7489 100.003 63.7489C103.204 63.7489 106.367 63.8147 109.483 63.9437C106.343 59.8413 103.165 56.04 100.003 52.5768C96.84 56.04 93.6617 59.8413 90.5225 63.9437ZM79.6052 64.6693C84.3308 57.9874 89.2275 51.9025 94.16 46.5424C80.224 33.0184 67.2629 26.6855 60.0722 30.8372C52.8814 34.9888 51.8853 49.3798 56.6295 68.2106C63.7375 66.6193 71.4556 65.4212 79.6052 64.6693ZM115.783 127.331C118.663 123.107 121.477 118.638 124.179 113.957C126.882 109.276 129.344 104.605 131.563 99.9992C129.344 95.3925 126.882 90.7217 124.179 86.0408C121.477 81.3592 118.663 76.8912 115.783 72.6671C110.684 72.285 105.408 72.0823 100.003 72.0823C94.5975 72.0823 89.3208 72.285 84.2225 72.6671C81.3427 76.8912 78.5289 81.3592 75.8262 86.0408C73.1234 90.7217 70.6608 95.3925 68.4427 99.9992C70.6608 104.605 73.1234 109.276 75.8262 113.957C78.5289 118.638 81.3427 123.107 84.2225 127.331C89.3208 127.712 94.5975 127.916 100.003 127.916C105.408 127.916 110.684 127.712 115.783 127.331ZM126.488 126.237C131.61 125.569 136.491 124.717 141.072 123.71C139.653 119.239 137.951 114.587 135.967 109.817C134.522 112.579 132.997 115.351 131.396 118.124C129.795 120.897 128.157 123.603 126.488 126.237ZM73.5182 73.7611C68.3956 74.4289 63.5145 75.2806 58.934 76.2878C60.3519 80.7583 62.0549 85.4117 64.0378 90.1817C65.4838 87.4192 67.0084 84.6467 68.6093 81.8739C70.2102 79.101 71.8488 76.3947 73.5182 73.7611ZM58.934 123.71C63.5145 124.717 68.3956 125.569 73.5182 126.237C71.8488 123.603 70.2102 120.897 68.6093 118.124C67.0084 115.351 65.4838 112.579 64.0378 109.817C62.0549 114.587 60.3519 119.239 58.934 123.71ZM50.7866 121.667C52.9626 114.716 55.7839 107.432 59.2076 99.9992C55.7839 92.565 52.9626 85.2825 50.7866 78.3307C32.1066 83.6375 20.1416 91.6958 20.1416 99.9992C20.1416 108.302 32.1066 116.36 50.7866 121.667ZM141.072 76.2878C136.491 75.2806 131.61 74.4289 126.488 73.7611C128.157 76.3947 129.795 79.101 131.396 81.8739C132.997 84.6467 134.522 87.4192 135.967 90.1817C137.951 85.4117 139.653 80.7583 141.072 76.2878ZM149.219 78.3307C147.042 85.2825 144.222 92.565 140.798 99.9992C144.222 107.432 147.042 114.716 149.219 121.667C167.899 116.36 179.864 108.302 179.864 99.9992C179.864 91.6958 167.899 83.6375 149.219 78.3307ZM100.003 115.658C91.3542 115.658 84.3433 108.647 84.3433 99.9992C84.3433 91.35 91.3542 84.3392 100.003 84.3392C108.652 84.3392 115.663 91.35 115.663 99.9992C115.663 108.647 108.652 115.658 100.003 115.658Z" fill="url(#paint0_linear_78_9)"/>
<defs>
<linearGradient id="paint0_linear_78_9" x1="100.003" y1="21.3135" x2="100.003" y2="178.684" gradientUnits="userSpaceOnUse">
<stop stop-color="#00EBD2"/>
<stop offset="1" stop-color="#0082A9"/>
</linearGradient>
</defs>
</svg>
