
<svg width="123" height="120" viewBox="0 0 123 120" fill="none" xmlns="http://www.w3.org/2000/svg">
<path d="M49 120L58.5 106.5C58.5 106.5 60.5 107 62.5 107C64.5 107 66 106.5 66 106.5L92 74C87 77.5 81 77.5 81 77.5C78.8883 83.8351 71.5301 88.5 65 88.5C60.3082 88.5 52.6862 86.5588 51 81.5C51 81.5 42 83.5 35 78C28 72.5 27 67.5 27 65L18 78.5L9 92L16.5 101.5L31.5 95.5C31.5 95.5 32 97 34 98.5C36 100 37.5 100.5 37.5 100.5V116.5L49 120Z" fill="#0099E9cc"/>
<path d="M47 0L36 4L36.5 20C36.5 20 35 20.5 33.5 21.5C32 22.5 30.5 24.5 30.5 24.5L15.5 20L8 30L17.5 42.5C17.5 42.5 16.5 44 16 46C15.5 48 15.5 49.5 15.5 49.5L0.5 55V66.5L16 71.5C16 71.5 16 73 16.5 75C17 77 18 78.5 18 78.5L27 65C27 62.5 26.5 58 30.5 53C34.5 48 40.5 45.5 40.5 45.5C41.1555 38.2899 47.5 33.7 53.5 32.5C59.5 31.3 66.4408 34.4673 69.5 39.5C69.5 39.5 76 38 80.5 41C85 44 86 49 86 49C93.0507 50.2819 97.5 57.16 97.5 64C97.5 66 97 70.5 92 74L66 106.5L75.5 119.5L86.5 115.5L87 99C87 99 88.5 99 90 98C91.5 97 92.5 95 92.5 95L108 99.5L115 90L105 77C105 77 106 76.5 107 74C108 71.5 107.5 70 107.5 70L122.5 65V53L107 48C107 48 107 46.5 106.5 45C106 43.5 104.5 41.5 104.5 41.5L114 28L106.344 18.5L90.5 24C90.5 24 89.5768 22.1826 88 21C86.4232 19.8174 85 19.5 85 19.5V4L73 0L64.5 12.5C64.5 12.5 63.5 12 61 12C58.5 12 57 12.5 57 12.5L47 0Z" fill="#0099E9"/>
<path d="M88 56.5C85 54 81 54.5 81 54.5C81 51.2032 80 48.4868 77 46.5C74.2453 44.6756 70.4701 43.7648 67 45.5C65.6333 40.0332 58.5 38 54.5 39C49.5 40 45.5 44.1702 45.5 49.5C45.5 49.5 40.5 51 37 54.5C33.5 58 33.5 62.5001 33.5 62.5001C33.5 62.5001 32.5 70.5 40 74.5C47.5 78.5 53 75.5 53 75.5C55.4537 79.794 59 81.9999 65 81.5C71 81.0001 76.499 77.5059 77.5 71.5C77.5 71.5 82 73 86.5 71C91 69 91.5 65.0001 91.5 63.5001C91.5 62 91 59 88 56.5Z" fill="#0099E9"/>
</svg>
