<svg width="100" height="100" viewBox="0 0 100 100" fill="none" xmlns="http://www.w3.org/2000/svg">
<path d="M92.9166 14.1497V22.9931C92.9166 30.7866 73.5069 37.1428 49.5833 37.1428C25.6596 37.1428 6.25 30.7866 6.25 22.9931V14.1497C6.25 6.35626 25.6596 0 49.5833 0C73.5069 0 92.9166 6.35626 92.9166 14.1497ZM92.9166 34.0476V53.9455C92.9166 61.7389 73.5069 68.0952 49.5833 68.0952C25.6596 68.0952 6.25 61.7389 6.25 53.9455V34.0476C15.5599 40.4592 32.5997 43.4439 49.5833 43.4439C66.5669 43.4439 83.6065 40.4592 92.9166 34.0476ZM92.9166 64.9999V84.8978C92.9166 92.6913 73.5069 99.0475 49.5833 99.0475C25.6596 99.0475 6.25 92.6913 6.25 84.8978V64.9999C15.5599 71.4115 32.5997 74.3963 49.5833 74.3963C66.5669 74.3963 83.6065 71.4115 92.9166 64.9999Z" fill="url(#paint0_linear_93_52)"/>
<defs>
<linearGradient id="paint0_linear_93_52" x1="49.5833" y1="0" x2="49.5833" y2="99.0475" gradientUnits="userSpaceOnUse">
<stop stop-color="#FFE728"/>
<stop offset="0.5" stop-color="#D0BE2C"/>
<stop offset="1" stop-color="#B69318"/>
</linearGradient>
</defs>
</svg>