
<svg width="228" height="114" viewBox="0 0 228 114" fill="none" xmlns="http://www.w3.org/2000/svg">
<path d="M142.626 91.0092C141.763 97.0523 126.223 112.592 126.223 112.592H86.5109H58.885V103.959V77.1962L91.6908 50.4336L111.547 51.2969C111.547 51.2969 112.41 51.2969 112.41 54.7501C112.41 58.2034 109.82 59.93 109.82 59.93H133.993C133.993 59.93 134.856 63.3832 133.13 66.8365C131.403 70.2897 120.18 82.3761 120.18 82.3761L141.763 83.2394C141.763 83.2394 143.489 84.966 142.626 91.0092Z" fill="url(#paint0_linear_86_11)"/>
<path d="M120.18 82.3761C120.18 82.3761 131.403 70.2897 133.13 66.8365C134.856 63.3832 133.993 59.93 133.993 59.93H109.82M120.18 82.3761L86.5109 112.592M120.18 82.3761L141.763 83.2394C141.763 83.2394 143.489 84.966 142.626 91.0092C141.763 97.0523 126.223 112.592 126.223 112.592H86.5109M109.82 59.93C109.82 59.93 112.41 58.2034 112.41 54.7501C112.41 51.2969 111.547 51.2969 111.547 51.2969M109.82 59.93C108.957 61.6566 58.885 103.959 58.885 103.959M111.547 51.2969C111.726 51.6976 91.6908 50.4336 91.6908 50.4336M111.547 51.2969L91.6908 50.4336M91.6908 50.4336L58.885 77.1962V103.959M58.885 103.959V112.592H86.5109" stroke="#452E1E"/>
<path d="M139.173 42.6632C136.798 41.0801 133.859 42.1768 130.54 44.3898C127.22 46.6029 118.601 53.7386 113.273 59.0661C110.683 61.656 107.945 66.5443 111.547 69.4258C115.149 72.3073 119.317 72.0158 121.906 70.2892C127.972 66.2451 135.368 58.5002 139.173 52.1596C142 47.4471 141.547 44.2463 139.173 42.6632Z" fill="url(#paint1_linear_86_11)" stroke="url(#paint2_linear_86_11)"/>
<path d="M89.1009 59.9292C91.6909 62.5191 93.4175 63.3824 96.8707 62.5191C100.324 61.6558 105.504 57.3393 108.957 53.886C112.41 50.4328 112.566 50.2251 115 46.9798L115 46.9796C117.434 43.7341 119.97 37.4132 115 35.7565C112.41 34.8932 108.957 36.6198 105.504 39.2097L105.504 39.2099C102.05 41.7999 95.144 46.9796 92.5541 49.5695C89.9642 52.1594 86.511 57.3393 89.1009 59.9292Z" fill="url(#paint3_linear_86_11)" stroke="url(#paint4_linear_86_11)"/>
<path d="M140.036 65.1092C142.626 63.3826 145.155 61.9542 147.776 63.1001C150.396 64.246 150.396 67.6992 149.532 70.2891C148.054 74.7231 145.503 77.9158 142.626 81.5121C139.173 85.8287 133.993 90.1452 132.266 91.0085C130.539 91.8719 126.223 93.5985 121.906 90.1452C117.59 86.692 122.77 80.6488 123.633 79.7855C124.119 79.2993 127.02 75.5269 131.403 72.0157C134.802 69.2927 137.446 66.8358 140.036 65.1092Z" fill="url(#paint5_linear_86_11)"/>
<path d="M123.633 79.7855C122.77 80.6488 117.59 86.692 121.906 90.1452C126.223 93.5985 130.539 91.8719 132.266 91.0085C133.993 90.1452 139.173 85.8287 142.626 81.5121C145.503 77.9158 148.054 74.7231 149.532 70.2891C150.396 67.6992 150.396 64.246 147.776 63.1001C145.155 61.9542 142.626 63.3826 140.036 65.1092C137.446 66.8358 134.802 69.2927 131.403 72.0157M123.633 79.7855C124.119 79.2993 127.02 75.5269 131.403 72.0157M123.633 79.7855L131.403 72.0157" stroke="url(#paint6_linear_86_11)"/>
<path d="M169.447 23.4461H163.404L153.384 54.5716C153.339 54.7264 153.305 54.8166 153.305 54.8166L153.384 54.5716C153.619 53.7682 154.171 51.2238 152 50.5C149.41 49.6367 147.864 51.072 147.864 51.072L153.907 20.8562C153.907 20.8562 151.317 20.8561 149.591 19.1295C147.864 17.4029 147.864 14.0178 147.864 10.4964C147.864 8.66417 147.864 2.72662 148.727 1.86331C149.591 1 153.044 1 153.044 1L171.173 1.00002C171.173 1.00002 171.5 20 171.173 21.498C170.847 22.9961 170.31 23.4461 169.447 23.4461Z" fill="url(#paint7_linear_86_11)"/>
<path d="M163.404 23.4461C163.404 23.4461 161.677 21.7195 159.95 20.8562C158.224 19.9928 153.907 20.8562 153.907 20.8562M163.404 23.4461C165.764 23.4461 168.583 23.4461 169.447 23.4461C170.31 23.4461 170.847 22.9961 171.173 21.498C171.5 20 171.173 1.00002 171.173 1.00002L153.044 1C153.044 1 149.591 1 148.727 1.86331C147.864 2.72662 147.864 8.66417 147.864 10.4964C147.864 14.0178 147.864 17.4029 149.591 19.1295C151.317 20.8561 153.907 20.8562 153.907 20.8562M163.404 23.4461L153.305 54.8166C153.305 54.8166 154.59 51.3633 152 50.5C149.41 49.6367 147.864 51.072 147.864 51.072L153.907 20.8562" stroke="#734261"/>
<path d="M151 50.5C149 50.5 148.863 50.6367 148 51.5C147.137 52.3633 146.937 52.8413 146.08 54.5248C145.84 54.9941 146.38 53.9245 145.216 56.2514C144.053 58.5784 146.08 60.568 145.216 64.0212C144.854 65.4691 143.489 66.6112 142.626 67.4745C141.763 68.3378 137.446 74.381 138.309 73.5177C139.173 72.6543 140.558 70.9538 143.489 69.2011C145.325 68.1038 145.415 69.0026 146.079 68.3378C147.806 66.6112 150.555 63.2854 151.259 61.4313C152.45 58.2991 153.85 54.5247 153.849 53.6615C153.849 52.7982 153 50.5 151 50.5Z" fill="url(#paint8_linear_86_11)" stroke="#9A1C7B" stroke-width="0.5"/>
<path d="M145.216 58.842C146.943 60.5687 146.943 66.6118 145.216 68.3385" stroke="#9A1C7B" stroke-width="0.5" stroke-linecap="square"/>
<path d="M186.439 43.6331V35L227.878 53.1295V59.1727L186.439 78.1655V69.5324L216.655 56.5827L186.439 43.6331Z" fill="url(#paint9_linear_86_11)"/>
<path d="M41.4389 43.6331V35L-3.8147e-06 53.1295V59.1727L41.4389 78.1655V69.5324L11.223 56.5827L41.4389 43.6331Z" fill="url(#paint10_linear_86_11)"/>
<defs>
<linearGradient id="paint0_linear_86_11" x1="58.885" y1="112.592" x2="143.489" y2="50.4336" gradientUnits="userSpaceOnUse">
<stop stop-color="#9D663F"/>
<stop offset="0.576522" stop-color="#9D663F"/>
<stop offset="0.869798" stop-color="#784F33"/>
</linearGradient>
<linearGradient id="paint1_linear_86_11" x1="110.502" y1="42.9278" x2="138.794" y2="72.5822" gradientUnits="userSpaceOnUse">
<stop offset="0.15" stop-color="#3A0E28"/>
<stop offset="0.5" stop-color="#FF79F0"/>
<stop offset="0.845" stop-color="#3A0E28"/>
</linearGradient>
<linearGradient id="paint2_linear_86_11" x1="110.502" y1="42.9278" x2="138.794" y2="72.5822" gradientUnits="userSpaceOnUse">
<stop offset="0.265" stop-color="#3A0E28"/>
<stop offset="0.505" stop-color="#FF79F0"/>
<stop offset="0.745" stop-color="#3A0E28"/>
</linearGradient>
<linearGradient id="paint3_linear_86_11" x1="88.8359" y1="35.8543" x2="115.46" y2="64.0423" gradientUnits="userSpaceOnUse">
<stop offset="0.15" stop-color="#3A0E28"/>
<stop offset="0.5" stop-color="#FF79F0"/>
<stop offset="0.845" stop-color="#3A0E28"/>
</linearGradient>
<linearGradient id="paint4_linear_86_11" x1="88.8359" y1="35.8543" x2="115.46" y2="64.0423" gradientUnits="userSpaceOnUse">
<stop offset="0.265" stop-color="#3A0E28"/>
<stop offset="0.505" stop-color="#FF79F0"/>
<stop offset="0.745" stop-color="#3A0E28"/>
</linearGradient>
<linearGradient id="paint5_linear_86_11" x1="120.872" y1="63.0363" x2="149.699" y2="91.6832" gradientUnits="userSpaceOnUse">
<stop offset="0.15" stop-color="#3A0E28"/>
<stop offset="0.5" stop-color="#FF79F0"/>
<stop offset="0.845" stop-color="#3A0E28"/>
</linearGradient>
<linearGradient id="paint6_linear_86_11" x1="120.872" y1="63.0363" x2="149.699" y2="91.6832" gradientUnits="userSpaceOnUse">
<stop offset="0.265" stop-color="#3A0E28"/>
<stop offset="0.505" stop-color="#FF79F0"/>
<stop offset="0.745" stop-color="#3A0E28"/>
</linearGradient>
<linearGradient id="paint7_linear_86_11" x1="147.864" y1="21.4235" x2="172.037" y2="27.7626" gradientUnits="userSpaceOnUse">
<stop offset="0.249" stop-color="#D454A2"/>
<stop offset="0.421779" stop-color="#D48BC1"/>
<stop offset="0.569374" stop-color="#995480"/>
</linearGradient>
<linearGradient id="paint8_linear_86_11" x1="134.914" y1="59.7047" x2="152.197" y2="66.0731" gradientUnits="userSpaceOnUse">
<stop offset="0.482848" stop-color="#9A1C7B"/>
<stop offset="0.674639" stop-color="#E34ABE"/>
<stop offset="0.825373" stop-color="#9A1C7B"/>
</linearGradient>
<linearGradient id="paint9_linear_86_11" x1="207.158" y1="35" x2="207.158" y2="78.1655" gradientUnits="userSpaceOnUse">
<stop stop-color="#fefefe"/>
<stop offset="0.5" stop-color="#dedede"/>
<stop offset="1" stop-color="#cecece"/>
</linearGradient>
<linearGradient id="paint10_linear_86_11" x1="20.7194" y1="35" x2="20.7194" y2="78.1655" gradientUnits="userSpaceOnUse">
<stop stop-color="#fefefe"/>
<stop offset="0.5" stop-color="#dedede"/>
<stop offset="1" stop-color="#cecece"/>
</linearGradient>
</defs>
</svg>
