
<svg width="200" height="200" viewBox="0 0 200 200" fill="none" xmlns="http://www.w3.org/2000/svg">
<path d="M160.333 25H39.6667C35.7768 25 32.0463 26.5452 29.2958 29.2958C26.5452 32.0463 25 35.7768 25 39.6667V160.333C25 164.223 26.5452 167.954 29.2958 170.704C32.0463 173.455 35.7768 175 39.6667 175H160.333C162.259 175 164.167 174.621 165.946 173.884C167.725 173.146 169.342 172.066 170.704 170.704C172.066 169.342 173.146 167.725 173.884 165.946C174.621 164.167 175 162.259 175 160.333V39.6667C175 37.7406 174.621 35.8334 173.884 34.054C173.146 32.2745 172.066 30.6577 170.704 29.2958C169.342 27.9338 167.725 26.8535 165.946 26.1164C164.167 25.3794 162.259 25 160.333 25ZM112 108.333H93.25V162H78.3333V108.333H59.5833V96.1667H112V108.333ZM160.333 152.333C159.127 154.898 157.183 157.046 154.75 158.5C152.19 160.075 149.367 161.176 146.417 161.75C143.127 162.429 139.776 162.764 136.417 162.75C132.98 162.747 129.55 162.44 126.167 161.833C123.291 161.244 120.494 160.322 117.833 159.083V144.833L117.333 144.333H117.833V144.917C120.34 146.872 123.157 148.393 126.167 149.417C129.172 150.561 132.367 151.127 135.583 151.083C137.264 151.113 138.942 150.945 140.583 150.583C141.816 150.295 142.997 149.817 144.083 149.167C144.934 148.648 145.648 147.934 146.167 147.083C146.68 146.115 146.905 145.02 146.817 143.927C146.728 142.834 146.329 141.79 145.667 140.917C144.883 139.818 143.892 138.884 142.75 138.167C141.363 137.191 139.884 136.354 138.333 135.667L132.75 133.333C128.33 131.513 124.414 128.655 121.333 125C118.755 121.892 117.393 117.954 117.5 113.917C117.403 110.85 118.091 107.809 119.5 105.083C120.844 102.707 122.728 100.681 125 99.1667C127.531 97.4827 130.359 96.295 133.333 95.6667C136.585 94.9183 139.913 94.5547 143.25 94.5833C146.288 94.5409 149.325 94.7359 152.333 95.1667C154.836 95.5579 157.293 96.2 159.667 97.0833V110.833C158.57 110.051 157.397 109.381 156.167 108.833C154.842 108.263 153.477 107.79 152.083 107.417C150.748 107.026 149.382 106.747 148 106.583C146.725 106.463 145.442 106.463 144.167 106.583C142.596 106.557 141.029 106.725 139.5 107.083C138.246 107.346 137.038 107.796 135.917 108.417C135.042 108.932 134.3 109.646 133.75 110.5C133.251 111.33 132.992 112.282 133 113.25C132.98 114.284 133.27 115.3 133.833 116.167C134.518 117.113 135.364 117.931 136.333 118.583C137.508 119.519 138.796 120.303 140.167 120.917L145.417 123.25C147.831 124.248 150.17 125.418 152.417 126.75C154.392 127.831 156.191 129.208 157.75 130.833C159.278 132.314 160.471 134.104 161.25 136.083C162.049 138.358 162.444 140.756 162.417 143.167C162.357 146.279 161.647 149.345 160.333 152.167V152.333Z" fill="url(#paint0_linear_81_8)"/>
<defs>
<linearGradient id="paint0_linear_81_8" x1="100" y1="25" x2="100" y2="175" gradientUnits="userSpaceOnUse">
<stop stop-color="#5CAAFF"/>
<stop offset="0.5" stop-color="#5091D8"/>
<stop offset="1" stop-color="#487BB4"/>
</linearGradient>
</defs>
</svg>
