<svg width="345" height="343" viewBox="0 0 345 343" fill="none" xmlns="http://www.w3.org/2000/svg">
<path d="M1 2L1 338.26L35.25 304.01L35.25 36.0103L1 2Z" fill="#fefefe" stroke="#fefefe"/>
<path d="M1.99995 341.26H338.5L304.25 307.01L36 307.26L1.99995 341.26Z" fill="#fefefe" stroke="#fefefe"/>
<path d="M262.5 265.76L82.5 263.76L49 295.26H291.826L262.5 265.76Z" fill="#fefefe" stroke="#fefefe"/>
<path d="M79.5 262.189L79.5 80.2603L48 48.7603L48 291.76L79.5 262.189Z" fill="#fefefe" stroke="#fefefe"/>
<path d="M344 341.26L344 4.41465L309.436 38.7242L309.436 307.191L344 341.26Z" fill="#fefefe" fill-opacity="0.3" stroke="#fefefe" stroke-opacity="0.3"/>
<path d="M342.766 2H7L41.1753 35.8053L308.84 35.5585L342.766 2Z" fill="#fefefe" fill-opacity="0.3" stroke="#fefefe" stroke-opacity="0.3"/>
<path d="M83.1286 77.2761L262.478 79.2692L295.857 47.8786H53.9084L83.1286 77.2761Z" fill="#fefefe" fill-opacity="0.3" stroke="#fefefe" stroke-opacity="0.3"/>
<path d="M266.231 81.032V262.716L297.092 294.174V51.5006L266.231 81.032Z" fill="#fefefe" fill-opacity="0.3" stroke="#fefefe" stroke-opacity="0.3"/>
</svg>